<svg viewBox="0 0 32 32" xmlns="http://www.w3.org/2000/svg"><g data-name="Chat Lock"><path d="M25 5H7a3 3 0 0 0-3 3v12a3 3 0 0 0 3 3h1v3a1 1 0 0 0 .53.88 1 1 0 0 0 1-.05L15.3 23H25a3 3 0 0 0 3-3V8a3 3 0 0 0-3-3Z" fill="#b3c3db" class="fill-d8e1ef"></path><path d="M18 14h-4a1 1 0 0 1-1-1v-2a3 3 0 0 1 6 0v2a1 1 0 0 1-1 1Zm-3-2h2v-1a1 1 0 0 0-2 0Z" fill="#1e59a6" class="fill-0e6ae0"></path><rect height="8" rx="2" ry="2" width="8" x="12" y="12" fill="#0a3871" class="fill-0593ff"></rect><path d="M16 17a1 1 0 0 1-1-1 1 1 0 0 1 2 0 1 1 0 0 1-1 1Z" fill="#1e59a6" class="fill-0e6ae0"></path></g></svg>